{"glyphs":{"$":{"x_min":0,"x_max":649,"ha":649,"o":"m 78 225 l 171 269 l 176 269 l 176 229 q 176 169 211 128 q 245 89 296 81 l 296 368 q 225 376 171 425 q 122 469 122 553 q 122 651 183 700 q 230 739 296 746 l 296 830 l 348 854 l 353 854 l 353 746 q 419 739 467 700 q 527 651 527 565 l 435 521 l 430 521 l 430 560 q 430 615 398 643 q 378 661 353 667 l 353 454 q 451 448 505 399 q 571 340 571 230 q 571 130 505 61 q 447 0 353 -9 l 353 -93 l 301 -117 l 296 -117 l 296 -9 q 202 0 144 61 q 78 131 78 225 z m 296 457 l 296 667 q 268 661 249 640 q 220 610 220 560 q 220 512 242 487 q 263 464 296 457 z m 353 365 l 353 81 q 404 89 438 128 q 473 168 473 229 q 473 287 445 321 q 413 358 353 365 z"},"<":{"x_min":0,"x_max":653,"ha":653,"o":"m 73 324 l 73 329 l 113 414 l 516 585 l 556 500 l 556 496 l 222 360 l 556 225 l 556 220 l 516 136 z"},"'":{"x_min":0,"x_max":228,"ha":228,"o":"m 149 757 l 154 757 l 154 521 l 78 484 l 73 484 l 73 721 z"},"=":{"x_min":0,"x_max":593,"ha":593,"o":"m 73 413 l 73 418 l 113 502 l 520 502 l 520 497 l 480 413 z m 73 235 l 73 240 l 113 324 l 520 324 l 520 319 l 480 235 z"},"a":{"x_min":0,"x_max":518,"ha":518,"o":"m 444 24 l 352 -20 l 347 -20 l 347 32 q 308 -10 242 -10 q 150 -10 100 45 q 49 101 49 176 q 49 254 104 309 q 157 361 242 361 q 302 361 347 320 q 347 406 316 434 q 287 460 242 460 l 123 460 l 123 465 l 162 547 l 242 547 q 327 547 384 492 q 444 433 444 352 z m 145 176 q 145 132 171 104 q 196 77 242 77 q 290 77 316 104 q 346 136 346 175 q 346 219 315 246 q 285 273 243 273 q 198 273 171 245 q 145 216 145 176 z"},"L":{"x_min":0,"x_max":532,"ha":532,"o":"m 98 0 l 98 713 l 190 757 l 195 757 l 195 89 l 530 89 l 530 84 l 490 0 z"},"3":{"x_min":0,"x_max":649,"ha":649,"o":"m 79 234 l 171 278 l 176 278 l 176 234 q 176 170 211 128 q 254 78 325 78 q 395 78 439 128 q 474 168 474 229 q 474 287 445 321 q 405 367 324 367 q 257 367 216 345 l 377 648 l 122 648 l 122 653 l 161 737 l 529 737 l 361 444 q 447 444 505 393 q 571 334 571 230 q 571 131 506 61 q 439 -10 325 -10 q 211 -10 145 61 q 79 131 79 234 z"},"J":{"x_min":0,"x_max":630,"ha":630,"o":"m 39 225 l 132 269 l 137 269 l 137 234 q 137 169 172 128 q 215 78 286 78 q 356 78 399 128 q 435 169 435 234 l 435 648 l 155 648 l 155 653 l 194 737 l 532 737 l 532 234 q 532 129 466 61 q 397 -10 286 -10 q 176 -10 105 61 q 39 126 39 225 z"},"V":{"x_min":0,"x_max":577,"ha":577,"o":"m 251 -20 l 2 717 l 87 757 l 92 757 l 294 144 l 485 757 l 490 757 l 574 717 l 341 21 l 256 -20 z"},"\"":{"x_min":0,"x_max":365,"ha":365,"o":"m 287 757 l 292 757 l 292 521 l 215 484 l 210 484 l 210 721 z m 149 757 l 154 757 l 154 521 l 78 484 l 73 484 l 73 721 z"},"7":{"x_min":0,"x_max":511,"ha":511,"o":"m 224 -20 l 219 -20 l 131 22 l 354 648 l 24 648 l 24 653 l 64 737 l 487 737 l 487 732 z"},"S":{"x_min":0,"x_max":649,"ha":649,"o":"m 571 230 q 571 131 505 61 q 438 -10 325 -10 q 211 -10 144 61 q 78 131 78 225 l 171 269 l 176 269 l 176 229 q 176 169 211 128 q 254 78 325 78 q 395 78 438 128 q 473 168 473 229 q 473 288 445 321 q 406 367 325 367 q 236 367 171 425 q 122 469 122 553 q 122 651 183 700 q 240 747 325 747 q 409 747 467 700 q 527 651 527 565 l 435 521 l 430 521 l 430 560 q 430 616 398 643 q 367 670 325 670 q 277 670 249 640 q 220 610 220 560 q 220 512 242 487 q 271 455 325 455 q 443 455 505 399 q 571 341 571 230 z"},"}":{"x_min":0,"x_max":403,"ha":403,"o":"m 24 -117 l 24 -29 q 96 -29 138 21 q 173 62 173 127 l 173 610 q 173 675 138 716 q 96 766 24 767 l 24 854 q 136 854 205 784 q 271 716 271 610 l 271 413 l 378 413 l 378 408 l 339 324 l 271 324 l 271 127 q 271 21 205 -46 q 136 -117 24 -117 z"},"Z":{"x_min":0,"x_max":619,"ha":619,"o":"m 73 0 l 73 5 l 389 648 l 78 648 l 78 653 l 118 737 l 541 737 l 541 732 l 223 89 l 545 89 l 545 84 l 506 0 z"},"x":{"x_min":0,"x_max":496,"ha":496,"o":"m 129 -20 l 124 -20 l 39 21 l 190 269 l 39 516 l 125 557 l 129 557 l 248 348 l 366 557 l 371 557 l 457 516 l 305 269 l 457 21 l 372 -20 l 367 -20 l 248 189 z"},")":{"x_min":0,"x_max":369,"ha":369,"o":"m 24 -117 q 24 -117 24 -29 q 96 -29 138 21 q 173 62 173 127 l 173 610 q 173 675 138 716 q 96 766 24 767 l 24 854 q 136 854 205 784 q 271 716 271 610 l 271 127 q 271 21 205 -46 q 136 -117 24 -117 z"},"&":{"x_min":0,"x_max":840,"ha":840,"o":"m 78 229 q 78 327 150 391 q 173 411 190 419 q 122 477 122 555 q 122 651 183 700 q 240 747 325 747 q 411 747 467 700 q 527 649 527 555 l 435 511 l 430 511 l 430 559 q 430 614 398 643 q 368 670 325 670 q 277 670 249 640 q 220 610 220 555 q 220 511 242 487 q 272 455 319 451 q 366 446 405 446 l 553 270 l 685 407 l 689 407 l 773 367 l 609 201 l 762 21 l 677 -20 l 672 -20 l 540 139 l 374 -20 q 196 -20 135 60 q 78 134 78 229 z m 485 209 l 346 375 q 281 374 225 334 q 176 300 176 222 q 176 162 211 119 q 247 74 310 74 q 375 74 485 209 z"},"_":{"x_min":0,"x_max":593,"ha":593,"o":"m 73 -200 l 73 -195 l 113 -111 l 520 -111 l 520 -116 l 480 -200 z"},"v":{"x_min":0,"x_max":501,"ha":501,"o":"m 213 -20 l 24 517 l 109 557 l 114 557 l 252 149 l 387 557 l 392 557 l 477 517 l 302 21 l 218 -20 z"},"O":{"x_min":0,"x_max":688,"ha":688,"o":"m 195 234 q 195 169 230 128 q 274 78 344 78 q 415 78 458 128 q 493 169 493 234 l 493 503 q 493 568 458 609 q 415 659 344 659 q 274 659 230 609 q 195 568 195 503 z m 98 234 l 98 503 q 98 609 164 676 q 233 747 344 747 q 456 747 525 676 q 591 609 591 503 l 591 234 q 591 128 525 61 q 456 -10 344 -10 q 233 -10 164 61 q 98 128 98 234 z"},"(":{"x_min":0,"x_max":369,"ha":369,"o":"m 344 -117 q 233 -117 164 -46 q 98 21 98 127 l 98 610 q 98 716 164 784 q 233 854 344 854 l 344 767 q 273 766 230 716 q 195 675 195 610 l 195 127 q 195 62 230 21 q 273 -29 344 -29 z"},"C":{"x_min":0,"x_max":688,"ha":688,"o":"m 591 269 l 591 234 q 591 128 525 61 q 456 -10 344 -10 q 233 -10 164 61 q 98 128 98 234 l 98 503 q 98 609 164 676 q 233 747 344 747 q 459 747 525 676 q 591 605 591 513 l 498 469 l 493 469 l 493 503 q 493 568 458 609 q 415 659 344 659 q 274 659 230 609 q 195 568 195 503 l 195 234 q 195 169 230 128 q 274 78 344 78 q 415 78 458 128 q 493 169 493 225 l 586 269 z"},"W":{"x_min":0,"x_max":1084,"ha":1084,"o":"m 986 757 l 986 234 q 986 129 920 61 q 851 -10 740 -10 q 639 -10 568 61 q 551 79 542 95 q 531 78 515 62 q 441 -10 344 -10 q 235 -10 164 61 q 98 126 98 234 l 98 713 l 190 757 l 195 757 l 195 234 q 195 169 230 128 q 274 78 344 78 q 415 78 458 128 q 493 169 493 234 l 493 713 l 586 757 l 591 757 l 591 234 q 591 169 626 128 q 669 78 740 78 q 810 78 854 128 q 889 169 889 234 l 889 713 l 981 757 z"},"A":{"x_min":0,"x_max":688,"ha":688,"o":"m 98 -20 l 98 503 q 98 608 164 676 q 233 747 344 747 q 454 747 525 676 q 591 611 591 503 l 591 24 l 498 -20 l 493 -20 l 493 324 l 195 324 l 195 24 l 103 -20 z m 195 413 l 493 413 l 493 503 q 493 568 458 609 q 415 659 344 659 q 274 659 230 609 q 195 568 195 503 z"},"f":{"x_min":0,"x_max":415,"ha":415,"o":"m 98 -20 l 98 399 l 24 399 l 24 404 l 64 488 l 98 488 l 98 552 q 98 632 158 692 q 215 747 300 747 l 366 747 l 366 742 l 327 660 l 300 660 q 256 660 226 634 q 195 607 195 552 l 195 488 l 357 488 l 357 483 l 317 399 l 195 399 l 195 24 l 103 -20 z"},"Q":{"x_min":0,"x_max":688,"ha":688,"o":"m 98 234 l 98 503 q 98 609 164 676 q 233 747 344 747 q 456 747 525 676 q 591 609 591 503 l 591 234 q 591 136 534 70 l 568 21 l 482 -20 l 477 -20 l 455 12 q 406 -10 344 -10 q 233 -10 164 61 q 98 128 98 234 z m 195 234 q 195 169 230 128 q 274 78 344 78 q 375 78 402 88 l 308 222 l 394 263 l 399 263 l 475 154 q 493 188 493 234 l 493 503 q 493 568 458 609 q 415 659 344 659 q 274 659 230 609 q 195 568 195 503 z"},"w":{"x_min":0,"x_max":859,"ha":859,"o":"m 786 557 l 786 186 q 786 105 726 45 q 669 -10 583 -10 q 506 -10 449 47 q 438 58 430 72 q 421 58 410 47 q 349 -10 276 -10 q 191 -10 134 45 q 73 104 73 186 l 73 513 l 166 557 l 171 557 l 171 186 q 171 129 201 103 q 232 77 276 77 q 320 77 350 103 q 381 129 381 186 l 381 513 l 474 557 l 479 557 l 479 186 q 479 129 509 103 q 540 77 583 77 q 627 77 658 103 q 688 129 688 186 l 688 513 l 781 557 z"},"-":{"x_min":0,"x_max":593,"ha":593,"o":"m 73 324 l 73 329 l 113 413 l 520 413 l 520 408 l 480 324 z"},"E":{"x_min":0,"x_max":565,"ha":565,"o":"m 98 0 l 98 713 l 149 737 l 459 737 l 459 732 l 419 648 l 195 648 l 195 413 l 459 413 l 459 408 l 419 324 l 195 324 l 195 89 l 541 89 l 541 84 l 501 0 z"},"s":{"x_min":0,"x_max":522,"ha":522,"o":"m 59 172 l 151 216 l 156 216 l 156 177 q 156 123 188 94 q 218 67 261 67 q 311 67 339 99 q 368 132 368 171 q 368 213 337 238 q 310 259 261 259 q 174 259 124 297 q 79 330 79 400 q 79 468 141 512 q 189 547 261 547 q 330 547 381 504 q 420 470 429 426 l 336 382 l 332 382 l 332 396 q 332 421 317 439 q 293 470 250 470 q 215 470 194 448 q 172 426 172 400 q 172 369 198 350 q 213 340 261 340 q 360 340 410 294 q 464 245 464 166 q 464 103 408 45 q 354 -10 261 -10 q 177 -10 119 37 q 59 86 59 172 z"},">":{"x_min":0,"x_max":653,"ha":653,"o":"m 580 396 l 580 392 l 540 307 l 138 136 l 98 220 l 98 225 l 432 360 l 98 496 l 98 500 l 138 585 z"},"l":{"x_min":0,"x_max":293,"ha":293,"o":"m 98 -20 l 98 713 l 190 757 l 195 757 l 195 24 l 103 -20 z"},"8":{"x_min":0,"x_max":648,"ha":648,"o":"m 78 230 q 78 326 152 396 q 168 410 189 421 q 122 476 122 553 q 122 650 182 700 q 240 747 324 747 q 409 747 466 700 q 527 651 527 553 q 527 476 459 421 q 480 410 496 396 q 570 326 570 230 q 570 131 505 61 q 438 -10 324 -10 q 210 -10 144 61 q 78 131 78 230 z m 438 128 q 473 168 473 229 q 473 288 444 321 q 405 367 324 367 q 243 367 204 321 q 176 288 176 229 q 176 168 210 128 q 254 78 324 78 q 394 78 438 128 z m 219 560 q 219 512 241 487 q 271 455 324 455 q 378 455 407 487 q 429 512 429 560 q 429 610 400 640 q 372 670 324 670 q 277 670 248 640 q 219 610 219 560 z"},"\\":{"x_min":0,"x_max":476,"ha":476,"o":"m 396 -68 l 5 772 l 74 806 l 79 806 l 471 -35 l 401 -68 z"},"e":{"x_min":0,"x_max":552,"ha":552,"o":"m 479 216 l 479 186 q 479 105 418 45 q 361 -10 276 -10 q 191 -10 134 45 q 73 104 73 186 l 73 352 q 73 432 134 492 q 190 547 276 547 q 359 547 418 492 q 479 435 479 366 l 479 365 l 181 131 q 188 115 201 104 q 232 77 276 77 q 320 77 350 104 q 381 130 381 172 l 474 216 z m 171 230 l 375 396 q 367 419 351 434 q 320 460 276 460 q 232 460 201 434 q 171 408 171 352 z"},"b":{"x_min":0,"x_max":576,"ha":576,"o":"m 98 186 l 98 713 l 190 757 l 195 757 l 195 505 q 232 547 300 547 q 385 547 442 492 q 503 433 503 352 l 503 186 q 503 105 442 45 q 386 -10 300 -10 q 216 -10 158 45 q 98 104 98 186 z m 195 186 q 195 129 226 103 q 256 77 300 77 q 344 77 375 103 q 405 129 405 186 l 405 352 q 405 408 375 434 q 344 460 300 460 q 256 460 226 434 q 195 408 195 352 z"},"m":{"x_min":0,"x_max":859,"ha":859,"o":"m 73 -20 l 73 352 q 73 432 134 492 q 190 547 276 547 q 354 547 410 490 q 421 479 430 465 q 438 479 449 490 q 510 547 583 547 q 668 547 726 492 q 786 433 786 352 l 786 24 l 693 -20 l 688 -20 l 688 352 q 688 408 658 434 q 627 460 583 460 q 540 460 509 434 q 479 408 479 352 l 479 24 l 386 -20 l 381 -20 l 381 352 q 381 408 350 434 q 320 460 276 460 q 232 460 201 434 q 171 408 171 352 l 171 24 l 78 -20 z"},"#":{"x_min":0,"x_max":668,"ha":668,"o":"m 224 108 l 219 108 l 219 254 l 73 254 l 73 259 l 113 343 l 219 343 l 219 396 l 73 396 l 73 400 l 113 484 l 219 484 l 219 590 l 303 630 l 308 630 l 308 484 l 360 484 l 360 590 l 444 630 l 449 630 l 449 484 l 595 484 l 595 479 l 555 396 l 449 396 l 449 343 l 595 343 l 595 338 l 555 254 l 449 254 l 449 148 l 365 108 l 360 108 l 360 254 l 308 254 l 308 148 z m 308 343 l 360 343 l 360 396 l 308 396 z"},",":{"x_min":0,"x_max":297,"ha":297,"o":"m 166 136 l 171 136 q 224 83 224 17 q 224 -77 104 -140 l 83 -115 q 139 -59 139 -10 q 139 49 73 92 z"},"n":{"x_min":0,"x_max":552,"ha":552,"o":"m 73 -20 l 73 352 q 73 432 134 492 q 190 547 276 547 q 360 547 418 492 q 479 433 479 352 l 479 24 l 386 -20 l 381 -20 l 381 352 q 381 408 350 434 q 320 460 276 460 q 232 460 201 434 q 171 408 171 352 l 171 24 l 78 -20 z"},"h":{"x_min":0,"x_max":576,"ha":576,"o":"m 98 -20 l 98 713 l 190 757 l 195 757 l 195 505 q 232 547 300 547 q 385 547 442 492 q 503 433 503 352 l 503 24 l 410 -20 l 405 -20 l 405 352 q 405 408 375 434 q 344 460 300 460 q 256 460 226 434 q 195 408 195 352 l 195 24 l 103 -20 z"},"z":{"x_min":0,"x_max":514,"ha":514,"o":"m 49 0 l 49 5 l 304 448 l 54 448 l 54 453 l 93 537 l 460 537 l 460 532 l 206 89 l 465 89 l 465 84 l 426 0 z"},"B":{"x_min":0,"x_max":669,"ha":669,"o":"m 195 88 l 334 88 q 408 88 452 134 q 483 168 483 223 q 483 280 450 319 q 413 364 334 364 l 195 364 z m 195 452 l 334 452 q 383 452 413 484 q 439 512 439 558 q 439 595 408 625 q 379 649 334 649 l 195 649 z m 98 0 l 98 713 l 149 737 l 334 737 q 417 737 472 692 q 537 640 537 557 q 537 473 462 417 q 486 407 510 387 q 581 322 581 226 q 581 129 519 67 q 452 0 334 0 z"},"K":{"x_min":0,"x_max":664,"ha":664,"o":"m 98 -20 l 98 713 l 190 757 l 195 757 l 195 389 l 460 757 l 465 757 l 551 716 l 333 426 q 446 424 510 361 q 576 296 576 188 l 576 24 l 483 -20 l 479 -20 l 479 188 q 479 253 443 293 q 400 344 337 344 q 273 344 230 293 q 195 252 195 188 l 195 24 l 103 -20 z"},"R":{"x_min":0,"x_max":666,"ha":666,"o":"m 98 -20 l 98 713 l 149 737 l 334 737 q 446 737 515 667 q 581 599 581 493 q 581 387 515 320 q 476 280 424 263 l 593 21 l 507 -20 l 502 -20 l 314 249 l 195 249 l 195 24 l 103 -20 z m 195 337 l 334 337 q 398 337 448 387 q 483 423 483 493 q 483 559 448 599 q 405 649 334 649 l 195 649 z"},"T":{"x_min":0,"x_max":521,"ha":521,"o":"m 211 -20 l 211 648 l 2 648 l 2 653 l 42 737 l 518 737 l 518 732 l 479 648 l 309 648 l 309 24 l 216 -20 z"},"P":{"x_min":0,"x_max":654,"ha":654,"o":"m 195 337 l 334 337 q 398 337 448 387 q 483 423 483 493 q 483 559 448 599 q 405 649 334 649 l 195 649 z m 98 -20 l 98 713 l 149 737 l 334 737 q 446 737 515 667 q 581 599 581 493 q 581 387 515 320 q 445 249 334 249 l 195 249 l 195 24 l 103 -20 z"},"|":{"x_min":0,"x_max":325,"ha":325,"o":"m 122 -117 l 122 818 l 198 854 l 203 854 l 203 -81 l 127 -117 z"},"t":{"x_min":0,"x_max":373,"ha":373,"o":"m 138 -20 l 138 448 l 12 448 l 12 453 l 52 537 l 138 537 l 138 713 l 230 757 l 235 757 l 235 537 l 361 537 l 361 532 l 321 448 l 235 448 l 235 24 l 143 -20 z"},"M":{"x_min":0,"x_max":1084,"ha":1084,"o":"m 98 -20 l 98 503 q 98 608 164 676 q 233 747 344 747 q 445 747 516 676 q 533 659 542 642 q 553 659 569 675 q 643 747 740 747 q 849 747 920 676 q 986 611 986 503 l 986 24 l 894 -20 l 889 -20 l 889 503 q 889 568 854 609 q 810 659 740 659 q 669 659 626 609 q 591 568 591 503 l 591 24 l 498 -20 l 493 -20 l 493 503 q 493 568 458 609 q 415 659 344 659 q 274 659 230 609 q 195 568 195 503 l 195 24 l 103 -20 z"},"g":{"x_min":0,"x_max":566,"ha":566,"o":"m 171 186 q 171 129 201 103 q 232 77 276 77 q 320 77 350 103 q 381 129 381 186 l 381 352 q 381 408 350 434 q 320 460 276 460 q 232 460 201 434 q 171 408 171 352 z m 73 186 l 73 352 q 73 432 134 492 q 190 547 276 547 q 361 547 418 492 q 479 433 479 352 l 479 -15 q 479 -95 418 -155 q 361 -210 276 -210 l 125 -210 l 125 -205 l 165 -123 l 276 -123 q 320 -123 350 -97 q 381 -71 381 -15 l 381 32 q 344 -10 276 -10 q 191 -10 134 45 q 73 104 73 186 z"},"y":{"x_min":0,"x_max":576,"ha":576,"o":"m 73 186 l 73 513 l 166 557 l 171 557 l 171 186 q 171 129 201 103 q 232 77 276 77 q 320 77 350 103 q 381 129 381 186 l 381 513 l 474 557 l 479 557 l 479 -15 q 479 -95 418 -155 q 361 -210 276 -210 l 125 -210 l 125 -205 l 165 -123 l 276 -123 q 320 -123 351 -97 q 381 -70 381 -15 l 381 32 q 345 -10 276 -10 q 192 -10 134 45 q 73 103 73 186 z"},"@":{"x_min":0,"x_max":669,"ha":669,"o":"m 483 251 q 399 250 368 224 q 336 197 336 155 q 336 113 368 84 q 398 58 483 58 z m 488 -20 l 441 -20 q 345 -13 298 24 q 239 72 239 146 q 239 232 299 280 q 351 320 441 327 l 482 327 q 477 376 448 409 q 405 459 334 459 q 264 459 221 409 q 186 368 186 303 l 186 34 q 186 -31 221 -72 q 264 -122 334 -122 l 334 -210 q 223 -210 154 -139 q 88 -72 88 34 l 88 303 q 88 409 154 476 q 223 547 334 547 q 446 547 515 476 q 581 409 581 303 l 581 24 z"},"p":{"x_min":0,"x_max":576,"ha":576,"o":"m 405 352 q 405 408 375 434 q 344 460 300 460 q 256 460 226 434 q 195 408 195 352 l 195 186 q 195 129 226 103 q 256 77 300 77 q 344 77 375 103 q 405 129 405 186 z m 503 352 l 503 186 q 503 105 442 45 q 386 -10 300 -10 q 236 -10 195 32 l 195 -176 l 103 -220 l 98 -220 l 98 352 q 98 432 158 492 q 215 547 300 547 q 385 547 442 492 q 503 433 503 352 z"},"X":{"x_min":0,"x_max":624,"ha":624,"o":"m 134 -20 l 49 21 l 255 369 l 49 716 l 134 757 l 139 757 l 312 455 l 485 757 l 490 757 l 575 716 l 369 369 l 575 21 l 490 -20 l 485 -20 l 312 282 l 139 -20 z"},"*":{"x_min":0,"x_max":578,"ha":578,"o":"m 333 757 l 333 601 l 425 664 l 502 611 l 504 607 l 368 534 l 504 460 l 502 457 l 425 403 l 333 466 l 333 350 l 249 311 l 244 311 l 244 466 l 152 403 l 76 457 l 73 460 l 209 534 l 73 607 l 76 611 l 152 664 l 244 601 l 244 717 l 328 757 z"},"Y":{"x_min":0,"x_max":640,"ha":640,"o":"m 271 -20 l 271 236 q 194 249 139 303 q 73 368 73 477 l 73 713 l 166 757 l 171 757 l 171 477 q 171 411 206 371 q 250 320 320 320 q 394 320 434 371 q 469 416 469 477 l 469 713 l 562 757 l 566 757 l 566 477 q 566 371 500 303 q 447 249 369 236 l 369 24 l 276 -20 z"},"c":{"x_min":0,"x_max":552,"ha":552,"o":"m 479 216 l 479 186 q 479 105 418 45 q 361 -10 276 -10 q 191 -10 134 45 q 73 104 73 186 l 73 352 q 73 433 134 492 q 190 547 276 547 q 359 547 418 492 q 479 435 479 366 l 479 365 l 386 321 l 381 321 l 381 352 q 381 408 350 434 q 320 460 276 460 q 232 460 201 434 q 171 408 171 352 l 171 186 q 171 129 201 103 q 232 77 276 77 q 320 77 350 104 q 381 130 381 172 l 474 216 z"},"/":{"x_min":0,"x_max":476,"ha":476,"o":"m 74 -68 l 5 -35 l 396 806 l 401 806 l 471 772 l 79 -68 z"},"[":{"x_min":0,"x_max":422,"ha":422,"o":"m 98 -117 l 98 811 l 190 854 l 397 854 l 397 850 l 368 786 l 195 786 l 195 -49 l 397 -49 l 397 -54 l 368 -117 z"},"6":{"x_min":0,"x_max":688,"ha":688,"o":"m 578 546 l 488 503 l 483 503 q 483 568 448 609 q 404 659 345 659 q 274 659 230 609 q 195 568 195 503 l 195 412 q 259 470 344 470 q 458 470 525 399 q 591 329 591 230 q 591 131 525 61 q 458 -10 344 -10 q 230 -10 164 61 q 98 131 98 229 l 98 503 q 98 606 164 676 q 230 747 344 747 q 452 747 515 681 q 578 616 578 546 z m 344 382 q 274 382 230 332 q 195 291 195 229 q 195 169 230 128 q 273 78 344 78 q 413 78 458 128 q 493 168 493 229 q 493 291 458 332 q 415 382 344 382 z"},"r":{"x_min":0,"x_max":352,"ha":352,"o":"m 73 -20 l 73 352 q 73 432 134 492 q 190 547 276 547 l 342 547 l 342 542 l 303 460 l 276 460 q 232 460 201 434 q 171 408 171 352 q 171 352 171 24 l 78 -20 z"},"2":{"x_min":0,"x_max":651,"ha":651,"o":"m 73 0 l 73 5 l 113 89 l 347 315 q 471 430 471 509 q 471 570 438 609 q 397 659 325 659 q 256 659 211 609 q 176 570 176 511 q 176 479 195 446 l 113 407 l 108 407 q 78 459 78 522 q 78 606 144 676 q 211 747 325 747 q 438 747 505 676 q 571 607 571 506 q 570 396 439 275 l 230 89 l 573 89 l 573 84 l 533 0 z"},"{":{"x_min":0,"x_max":403,"ha":403,"o":"m 378 -117 q 267 -117 198 -46 q 132 21 132 127 l 132 324 l 24 324 l 24 329 l 64 413 l 132 413 l 132 610 q 132 716 198 784 q 267 854 378 854 l 378 767 q 307 766 265 716 q 229 675 229 610 l 229 127 q 229 62 265 21 q 307 -29 378 -29 z"},"9":{"x_min":0,"x_max":688,"ha":688,"o":"m 101 191 l 190 234 l 195 234 q 195 169 230 128 q 274 78 344 78 q 415 78 458 128 q 493 169 493 234 l 493 325 q 432 268 344 268 q 230 268 164 338 q 98 408 98 507 q 98 606 164 676 q 230 747 344 747 q 458 747 525 676 q 591 606 591 508 l 591 234 q 591 131 525 61 q 458 -10 344 -10 q 227 -10 164 56 q 101 122 101 191 z m 344 355 q 414 355 458 406 q 493 446 493 508 q 493 568 458 609 q 415 659 344 659 q 275 659 230 609 q 195 569 195 508 q 195 447 230 406 q 273 355 344 355 z"}," ":{"x_min":0,"x_max":391,"ha":391,"o":""},"I":{"x_min":0,"x_max":293,"ha":293,"o":"m 98 -20 l 98 713 l 190 757 l 195 757 l 195 24 l 103 -20 z"},"H":{"x_min":0,"x_max":679,"ha":679,"o":"m 98 -20 l 98 713 l 190 757 l 195 757 l 195 413 l 483 413 l 483 713 l 576 757 l 581 757 l 581 24 l 488 -20 l 483 -20 l 483 324 l 195 324 l 195 24 l 103 -20 z"},"4":{"x_min":0,"x_max":580,"ha":580,"o":"m 360 264 l 360 579 l 148 264 z m 360 -20 l 360 175 l 2 175 l 2 180 l 42 264 l 360 713 l 453 757 l 458 757 l 458 264 l 531 264 l 531 259 l 492 175 l 458 175 l 458 24 l 365 -20 z"},"~":{"x_min":0,"x_max":556,"ha":556,"o":"m 73 285 q 73 461 189 461 q 254 461 298 412 q 333 371 360 371 q 396 371 396 421 l 478 461 l 482 461 q 482 285 367 285 q 301 285 258 334 q 222 375 195 375 q 160 375 160 324 l 78 285 z"},"D":{"x_min":0,"x_max":679,"ha":679,"o":"m 98 0 l 98 713 l 149 737 l 334 737 q 446 737 515 667 q 581 600 581 493 l 581 244 q 581 138 515 71 q 446 0 334 0 z m 195 88 l 334 88 q 405 88 448 138 q 483 179 483 244 l 483 493 q 483 559 448 599 q 405 649 334 649 l 195 649 z"},"^":{"x_min":0,"x_max":645,"ha":645,"o":"m 73 531 l 258 717 l 342 757 l 347 757 l 572 531 l 487 491 l 482 491 l 322 648 l 163 491 l 158 491 z"},"0":{"x_min":0,"x_max":688,"ha":688,"o":"m 195 234 q 195 169 230 128 q 274 78 344 78 q 415 78 458 128 q 493 169 493 234 l 493 503 q 493 568 458 609 q 415 659 344 659 q 274 659 230 609 q 195 568 195 503 z m 98 234 l 98 503 q 98 609 164 676 q 233 747 344 747 q 456 747 525 676 q 591 609 591 503 l 591 234 q 591 128 525 61 q 456 -10 344 -10 q 233 -10 164 61 q 98 128 98 234 z"},"F":{"x_min":0,"x_max":547,"ha":547,"o":"m 98 -20 l 98 713 l 149 737 l 459 737 l 459 732 l 419 648 l 195 648 l 195 413 l 459 413 l 459 408 l 419 324 l 195 324 l 195 24 l 103 -20 z"},"`":{"x_min":0,"x_max":316,"ha":316,"o":"m 159 757 l 164 757 l 243 588 l 186 562 l 181 562 l 73 716 z"},"k":{"x_min":0,"x_max":576,"ha":576,"o":"m 98 -20 l 98 713 l 190 757 l 195 757 l 195 350 l 399 557 l 404 557 l 490 516 l 328 367 q 397 358 442 322 q 503 272 503 182 l 503 24 l 410 -20 l 405 -20 l 405 182 q 405 238 375 264 q 344 290 300 290 q 256 290 226 264 q 195 237 195 182 l 195 24 l 103 -20 z"},"u":{"x_min":0,"x_max":552,"ha":552,"o":"m 479 557 l 479 186 q 479 105 418 45 q 361 -10 276 -10 q 191 -10 134 45 q 73 104 73 186 l 73 513 l 166 557 l 171 557 l 171 186 q 171 129 201 103 q 232 77 276 77 q 320 77 350 103 q 381 129 381 186 l 381 513 l 474 557 z"},"]":{"x_min":0,"x_max":422,"ha":422,"o":"m 24 -117 l 24 -112 l 54 -49 l 227 -49 l 227 786 l 24 786 l 24 791 l 54 854 l 324 854 l 324 -73 l 231 -117 z"},"U":{"x_min":0,"x_max":688,"ha":688,"o":"m 591 757 l 591 234 q 591 129 525 61 q 456 -10 344 -10 q 234 -10 164 61 q 98 126 98 234 l 98 713 l 190 757 l 195 757 l 195 234 q 195 169 230 128 q 274 78 344 78 q 415 78 458 128 q 493 169 493 234 l 493 713 l 586 757 z"},"o":{"x_min":0,"x_max":552,"ha":552,"o":"m 73 186 l 73 352 q 73 432 134 492 q 190 547 276 547 q 360 547 418 492 q 479 433 479 352 l 479 186 q 479 105 418 45 q 361 -10 276 -10 q 191 -10 134 45 q 73 104 73 186 z m 171 186 q 171 129 201 103 q 232 77 276 77 q 320 77 350 103 q 381 129 381 186 l 381 352 q 381 408 350 434 q 320 460 276 460 q 232 460 201 434 q 171 408 171 352 z"},"N":{"x_min":0,"x_max":688,"ha":688,"o":"m 98 -20 l 98 503 q 98 608 164 676 q 233 747 344 747 q 454 747 525 676 q 591 611 591 503 l 591 24 l 498 -20 l 493 -20 l 493 503 q 493 568 458 609 q 415 659 344 659 q 274 659 230 609 q 195 568 195 503 l 195 24 l 103 -20 z"},"+":{"x_min":0,"x_max":593,"ha":593,"o":"m 341 592 l 341 413 l 520 413 l 520 408 l 480 324 l 341 324 l 341 185 l 257 146 l 252 146 l 252 324 l 73 324 l 73 329 l 113 413 l 252 413 l 252 552 l 336 592 z"},"G":{"x_min":0,"x_max":688,"ha":688,"o":"m 591 413 l 591 234 q 591 128 525 61 q 456 -10 344 -10 q 233 -10 164 61 q 98 128 98 234 l 98 503 q 98 609 164 676 q 233 747 344 747 q 459 747 525 676 q 591 605 591 513 l 498 469 l 493 469 l 493 503 q 493 568 458 609 q 415 659 344 659 q 274 659 230 609 q 195 568 195 503 l 195 234 q 195 169 230 128 q 274 78 344 78 q 415 78 458 128 q 493 169 493 225 l 493 324 l 323 324 l 323 329 l 363 413 z"},"q":{"x_min":0,"x_max":576,"ha":576,"o":"m 479 352 l 479 -176 l 386 -220 l 381 -220 l 381 32 q 344 -10 276 -10 q 191 -10 134 45 q 73 104 73 186 l 73 352 q 73 432 134 492 q 190 547 276 547 q 360 547 418 492 q 479 433 479 352 z m 381 352 q 381 408 350 434 q 320 460 276 460 q 232 460 201 434 q 171 408 171 352 l 171 186 q 171 129 201 103 q 232 77 276 77 q 320 77 350 103 q 381 129 381 186 z"},"d":{"x_min":0,"x_max":576,"ha":576,"o":"m 171 186 q 171 129 201 103 q 232 77 276 77 q 320 77 350 103 q 381 129 381 186 l 381 352 q 381 408 350 434 q 320 460 276 460 q 232 460 201 434 q 171 408 171 352 z m 73 186 l 73 352 q 73 432 134 492 q 190 547 276 547 q 340 547 381 505 l 381 713 l 474 757 l 479 757 l 479 186 q 479 105 418 45 q 361 -10 276 -10 q 191 -10 134 45 q 73 104 73 186 z"},"1":{"x_min":0,"x_max":349,"ha":349,"o":"m 129 -20 l 129 621 l 10 556 l 10 656 l 222 757 l 227 757 l 227 24 l 134 -20 z"},"5":{"x_min":0,"x_max":649,"ha":649,"o":"m 79 234 q 79 234 171 278 l 176 278 l 176 234 q 176 170 211 128 q 254 78 325 78 q 395 78 439 128 q 474 168 474 229 q 474 283 441 321 q 401 367 324 367 q 257 367 216 345 l 114 395 l 195 737 l 534 737 l 534 732 l 494 648 l 270 648 l 210 431 q 264 457 324 457 q 435 457 502 399 q 571 339 571 230 q 571 131 506 61 q 439 -10 325 -10 q 211 -10 145 61 q 79 131 79 234 z"}}}
